<?xml version="1.0" encoding="UTF-8" standalone="no"?>
<!DOCTYPE svg PUBLIC "-//W3C//DTD SVG 1.1//EN" "http://www.w3.org/Graphics/SVG/1.1/DTD/svg11.dtd">
<!-- Generated by Microsoft Visio, SVG Export Pipeline.svg Page-2 -->
<svg xmlns="http://www.w3.org/2000/svg" xmlns:xlink="http://www.w3.org/1999/xlink" xmlns:ev="http://www.w3.org/2001/xml-events"
		xmlns:v="http://schemas.microsoft.com/visio/2003/SVGExtensions/" width="11in" height="8.5in" viewBox="0 0 792 612"
		xml:space="preserve" color-interpolation-filters="sRGB" class="st21">
	<v:documentProperties v:langID="1033" v:viewMarkup="false">
		<v:userDefs>
			<v:ud v:nameU="msvSubprocessMaster" v:prompt="" v:val="VT4(Rectangle)"/>
			<v:ud v:nameU="msvNoAutoConnect" v:val="VT0(1):26"/>
		</v:userDefs>
	</v:documentProperties>

	<style type="text/css">
	<![CDATA[
		.st1 {fill:#d8d8d8;stroke:#c7c8c8;stroke-width:0.25}
		.st2 {fill:#000000;font-family:Calibri;font-size:1.16666em}
		.st3 {fill:#fec000;stroke:#c7c8c8;stroke-width:0.25}
		.st4 {fill:#000000;font-family:Calibri;font-size:0.666664em}
		.st5 {marker-end:url(#mrkr4-12);stroke:#000000;stroke-linecap:round;stroke-linejoin:round;stroke-width:1}
		.st6 {fill:#000000;fill-opacity:1;stroke:#000000;stroke-opacity:1;stroke-width:0.28409090909091}
		.st7 {fill:#70ad47;stroke:#c7c8c8;stroke-width:0.25}
		.st8 {fill:#000000;font-family:Calibri;font-size:0.833336em}
		.st9 {fill:#ed7d31;stroke:#c7c8c8;stroke-width:0.25}
		.st10 {fill:#feffff;font-family:Calibri;font-size:0.833336em}
		.st11 {marker-end:url(#mrkr4-12);marker-start:url(#mrkr4-25);stroke:#000000;stroke-linecap:round;stroke-linejoin:round;stroke-width:1}
		.st12 {fill:#000000;stroke:#c7c8c8;stroke-width:0.25}
		.st13 {fill:#ffc000;stroke:#c7c8c8;stroke-width:0.25}
		.st14 {fill:none;stroke:none;stroke-width:0.25}
		.st15 {fill:#000000;font-family:Calibri;font-size:1.00001em}
		.st16 {fill:#4672c4;stroke:#c7c8c8;stroke-width:0.25}
		.st17 {fill:#a3a3a3;stroke:none;stroke-width:0.75}
		.st18 {fill:url(#grad0-94);stroke:none;stroke-width:0.75}
		.st19 {fill:url(#grad0-99);stroke:none;stroke-width:0.75}
		.st20 {fill:#ffffff;fill-opacity:0.9;stroke:none;stroke-width:0.75}
		.st21 {fill:none;fill-rule:evenodd;font-size:12px;overflow:visible;stroke-linecap:square;stroke-miterlimit:3}
	]]>
	</style>

	<defs id="Patterns_And_Gradients">
		<linearGradient id="grad0-94" x1="0" y1="0" x2="1" y2="0" gradientTransform="rotate(-90 0.5 0.5)">
			<stop offset="0" stop-color="#0078d4" stop-opacity="1"/>
			<stop offset="0.155" stop-color="#1380da" stop-opacity="1"/>
			<stop offset="0.53" stop-color="#3c91e5" stop-opacity="1"/>
			<stop offset="0.82" stop-color="#559cec" stop-opacity="1"/>
			<stop offset="1" stop-color="#5ea0ef" stop-opacity="1"/>
		</linearGradient>
		<linearGradient id="grad0-99" x1="0" y1="0" x2="1" y2="0" gradientTransform="rotate(-90 0.5 0.5)">
			<stop offset="0" stop-color="#ef7100" stop-opacity="1"/>
			<stop offset="1" stop-color="#faa21d" stop-opacity="1"/>
		</linearGradient>
	</defs>
	<defs id="Markers">
		<g id="lend4">
			<path d="M 2 1 L 0 0 L 2 -1 L 2 1 " style="stroke:none"/>
		</g>
		<marker id="mrkr4-12" class="st6" v:arrowType="4" v:arrowSize="2" v:setback="7.04" refX="-7.04" orient="auto"
				markerUnits="strokeWidth" overflow="visible">
			<use xlink:href="#lend4" transform="scale(-3.52,-3.52) "/>
		</marker>
		<marker id="mrkr4-25" class="st6" v:arrowType="4" v:arrowSize="2" v:setback="6.68" refX="6.68" orient="auto"
				markerUnits="strokeWidth" overflow="visible">
			<use xlink:href="#lend4" transform="scale(3.52) "/>
		</marker>
	</defs>
	<g v:mID="15" v:index="1" v:groupContext="foregroundPage">
		<v:userDefs>
			<v:ud v:nameU="msvThemeOrder" v:val="VT0(0):26"/>
		</v:userDefs>
		<title>IPipeline</title>
		<v:pageProperties v:drawingScale="1" v:pageScale="1" v:drawingUnits="0" v:shadowOffsetX="9" v:shadowOffsetY="-9"/>
		<v:layer v:name="Connector" v:index="0"/>
		<g id="shape1030-1" v:mID="1030" v:groupContext="shape" transform="translate(290.25,-180)">
			<title>Rectangle.1030</title>
			<desc>Pipeline</desc>
			<v:userDefs>
				<v:ud v:nameU="visVersion" v:val="VT0(15):26"/>
				<v:ud v:nameU="visMasterStencil" v:prompt="" v:val="VT4(Basic_U.vssx)"/>
			</v:userDefs>
			<v:textBlock v:margins="rect(4,4,4,4)" v:verticalAlign="0"/>
			<v:textRect cx="155.531" cy="414" width="311.07" height="396"/>
			<rect x="0" y="216" width="311.062" height="396" class="st1"/>
			<text x="4" y="232.6" class="st2" v:langID="1033"><v:paragraph/><v:tabList/>Pipeline</text>		</g>
		<g id="shape1031-4" v:mID="1031" v:groupContext="shape" transform="translate(511.875,-196.791)">
			<title>Rectangle.1031</title>
			<desc>Operation Context</desc>
			<v:userDefs>
				<v:ud v:nameU="visVersion" v:val="VT0(15):26"/>
				<v:ud v:nameU="visMasterStencil" v:prompt="" v:val="VT4(Basic_U.vssx)"/>
			</v:userDefs>
			<v:textBlock v:margins="rect(4,4,4,4)"/>
			<v:textRect cx="37.125" cy="601.791" width="74.25" height="20.4187"/>
			<rect x="0" y="591.581" width="74.25" height="20.4187" class="st3"/>
			<text x="6.96" y="604.19" class="st4" v:langID="1033"><v:paragraph v:horizAlign="1"/><v:tabList/>Operation Context</text>		</g>
		<g id="shape1037-7" v:mID="1037" v:groupContext="shape" v:layerMember="0" transform="translate(397.406,-363.375)">
			<title>Dynamic connector.1037</title>
			<path d="M9 612 L9 636.46" class="st5"/>
		</g>
		<g id="shape1040-13" v:mID="1040" v:groupContext="shape" transform="translate(361.406,-196.875)">
			<title>Rectangle.1040</title>
			<desc>HttpResponse</desc>
			<v:userDefs>
				<v:ud v:nameU="visVersion" v:val="VT0(15):26"/>
				<v:ud v:nameU="visMasterStencil" v:prompt="" v:val="VT4(Basic_U.vssx)"/>
			</v:userDefs>
			<v:textBlock v:margins="rect(4,4,4,4)"/>
			<v:textRect cx="45" cy="599.625" width="90" height="24.75"/>
			<rect x="0" y="587.25" width="90" height="24.75" class="st7"/>
			<text x="16.42" y="602.63" class="st8" v:langID="1033"><v:paragraph v:horizAlign="1"/><v:tabList/>HttpResponse</text>		</g>
		<g id="shape1042-16" v:mID="1042" v:groupContext="shape" transform="translate(497.813,-363.375)">
			<title>Rectangle.1042</title>
			<desc>FHIR Service</desc>
			<v:userDefs>
				<v:ud v:nameU="visVersion" v:val="VT0(15):26"/>
				<v:ud v:nameU="visMasterStencil" v:prompt="" v:val="VT4(Basic_U.vssx)"/>
			</v:userDefs>
			<v:textBlock v:margins="rect(4,4,4,4)"/>
			<v:textRect cx="45" cy="599.625" width="90" height="24.75"/>
			<rect x="0" y="587.25" width="90" height="24.75" class="st9"/>
			<text x="19.95" y="602.63" class="st10" v:langID="1033"><v:paragraph v:horizAlign="1"/><v:tabList/>FHIR Service</text>		</g>
		<g id="shape1043-19" v:mID="1043" v:groupContext="shape" v:layerMember="0" transform="translate(451.406,-366.75)">
			<title>Dynamic connector.1043</title>
			<path d="M6.68 603 L7.04 603 L39.37 603" class="st11"/>
		</g>
		<g id="shape1046-27" v:mID="1046" v:groupContext="shape" v:layerMember="0" transform="translate(397.406,-250.875)">
			<title>Dynamic connector.1046</title>
			<path d="M9 612 L9 634.21" class="st5"/>
		</g>
		<g id="shape1048-32" v:mID="1048" v:groupContext="shape" transform="translate(361.406,-420.75)">
			<title>Rectangle.1048</title>
			<desc>Input Channel(s)</desc>
			<v:userDefs>
				<v:ud v:nameU="visVersion" v:val="VT0(15):26"/>
				<v:ud v:nameU="visMasterStencil" v:prompt="" v:val="VT4(Basic_U.vssx)"/>
			</v:userDefs>
			<v:textBlock v:margins="rect(4,4,4,4)"/>
			<v:textRect cx="45" cy="599.625" width="90" height="24.75"/>
			<rect x="0" y="587.25" width="90" height="24.75" class="st12"/>
			<text x="11.49" y="602.63" class="st10" v:langID="1033"><v:paragraph v:horizAlign="1"/><v:tabList/>Input Channel(s)</text>		</g>
		<g id="shape1049-35" v:mID="1049" v:groupContext="shape" v:layerMember="0" transform="translate(397.406,-475.875)">
			<title>Dynamic connector.1049</title>
			<path d="M9 612 L9 635.34" class="st5"/>
		</g>
		<g id="shape1050-40" v:mID="1050" v:groupContext="shape" v:layerMember="0" transform="translate(397.406,-420.75)">
			<title>Dynamic connector.1050</title>
			<path d="M9 612 L9 637.59" class="st5"/>
		</g>
		<g id="shape1051-45" v:mID="1051" v:groupContext="shape" v:layerMember="0" transform="translate(397.406,-531)">
			<title>Dynamic connector.1051</title>
			<path d="M9 612 L9 635.34" class="st5"/>
		</g>
		<g id="shape1061-50" v:mID="1061" v:groupContext="shape" transform="translate(481.5,-199.406)">
			<title>Sheet.1061</title>
			<v:textBlock v:margins="rect(4,4,4,4)"/>
			<ellipse cx="7.59375" cy="604.406" rx="7.59375" ry="7.59375" class="st13"/>
		</g>
		<g id="shape1062-52" v:mID="1062" v:groupContext="shape" transform="translate(488.25,-200.531)">
			<title>Sheet.1062</title>
			<desc>=</desc>
			<v:textBlock v:margins="rect(4,4,4,4)"/>
			<v:textRect cx="15.75" cy="605.25" width="31.5" height="13.5"/>
			<rect x="0" y="598.5" width="31.5" height="13.5" class="st14"/>
			<text x="12.76" y="608.85" class="st15" v:langID="1033"><v:paragraph v:horizAlign="1"/><v:tabList/>=</text>		</g>
		<g id="shape1065-55" v:mID="1065" v:groupContext="shape" v:layerMember="0" transform="translate(397.406,-307.125)">
			<title>Dynamic connector.1065</title>
			<path d="M9 612 L9 636.46" class="st5"/>
		</g>
		<g id="shape1067-60" v:mID="1067" v:groupContext="shape" transform="translate(401.414,-459)">
			<title>Sheet.1067</title>
			<v:textBlock v:margins="rect(4,4,4,4)"/>
			<ellipse cx="4.99219" cy="607.008" rx="4.99219" ry="4.99219" class="st13"/>
		</g>
		<g id="shape1028-62" v:mID="1028" v:groupContext="shape" transform="translate(361.406,-531)">
			<title>Rectangle.1028</title>
			<desc>HttpRequest</desc>
			<v:userDefs>
				<v:ud v:nameU="visVersion" v:val="VT0(15):26"/>
				<v:ud v:nameU="visMasterStencil" v:prompt="" v:val="VT4(Basic_U.vssx)"/>
			</v:userDefs>
			<v:textBlock v:margins="rect(4,4,4,4)"/>
			<v:textRect cx="45" cy="599.625" width="90" height="24.75"/>
			<rect x="0" y="587.25" width="90" height="24.75" class="st7"/>
			<text x="19.33" y="602.63" class="st8" v:langID="1033"><v:paragraph v:horizAlign="1"/><v:tabList/>HttpRequest</text>		</g>
		<g id="shape1032-65" v:mID="1032" v:groupContext="shape" transform="translate(361.406,-475.875)">
			<title>Rectangle.1032</title>
			<desc>Input Filter(s)</desc>
			<v:userDefs>
				<v:ud v:nameU="visVersion" v:val="VT0(15):26"/>
				<v:ud v:nameU="visMasterStencil" v:prompt="" v:val="VT4(Basic_U.vssx)"/>
			</v:userDefs>
			<v:textBlock v:margins="rect(4,4,4,4)"/>
			<v:textRect cx="45" cy="599.625" width="90" height="24.75"/>
			<rect x="0" y="587.25" width="90" height="24.75" class="st16"/>
			<text x="17.57" y="602.63" class="st10" v:langID="1033"><v:paragraph v:horizAlign="1"/><v:tabList/>Input Filter(s)</text>		</g>
		<g id="shape1055-68" v:mID="1055" v:groupContext="shape" transform="translate(401.414,-513.75)">
			<title>Sheet.1055</title>
			<v:textBlock v:margins="rect(4,4,4,4)"/>
			<ellipse cx="4.99219" cy="607.008" rx="4.99219" ry="4.99219" class="st13"/>
		</g>
		<g id="shape1068-70" v:mID="1068" v:groupContext="shape" transform="translate(401.414,-402.75)">
			<title>Sheet.1068</title>
			<v:textBlock v:margins="rect(4,4,4,4)"/>
			<ellipse cx="4.99219" cy="607.008" rx="4.99219" ry="4.99219" class="st13"/>
		</g>
		<g id="shape1070-72" v:mID="1070" v:groupContext="shape" transform="translate(401.414,-346.5)">
			<title>Sheet.1070</title>
			<v:textBlock v:margins="rect(4,4,4,4)"/>
			<ellipse cx="4.99219" cy="607.008" rx="4.99219" ry="4.99219" class="st13"/>
		</g>
		<g id="shape1071-74" v:mID="1071" v:groupContext="shape" transform="translate(401.414,-289.758)">
			<title>Sheet.1071</title>
			<v:textBlock v:margins="rect(4,4,4,4)"/>
			<ellipse cx="4.99219" cy="607.008" rx="4.99219" ry="4.99219" class="st13"/>
		</g>
		<g id="shape1072-76" v:mID="1072" v:groupContext="shape" transform="translate(401.414,-235.266)">
			<title>Sheet.1072</title>
			<v:textBlock v:margins="rect(4,4,4,4)"/>
			<ellipse cx="4.99219" cy="607.008" rx="4.99219" ry="4.99219" class="st13"/>
		</g>
		<g id="shape1033-78" v:mID="1033" v:groupContext="shape" transform="translate(361.406,-363.375)">
			<title>Rectangle.1033</title>
			<desc>REST Binding</desc>
			<v:userDefs>
				<v:ud v:nameU="visVersion" v:val="VT0(15):26"/>
				<v:ud v:nameU="visMasterStencil" v:prompt="" v:val="VT4(Basic_U.vssx)"/>
			</v:userDefs>
			<v:textBlock v:margins="rect(4,4,4,4)"/>
			<v:textRect cx="45" cy="599.625" width="90" height="24.75"/>
			<rect x="0" y="587.25" width="90" height="24.75" class="st9"/>
			<text x="18.73" y="602.63" class="st10" v:langID="1033"><v:paragraph v:horizAlign="1"/><v:tabList/>REST Binding</text>		</g>
		<g id="shape1034-81" v:mID="1034" v:groupContext="shape" transform="translate(361.406,-307.125)">
			<title>Rectangle.1034</title>
			<desc>Output Filter(s)</desc>
			<v:userDefs>
				<v:ud v:nameU="visVersion" v:val="VT0(15):26"/>
				<v:ud v:nameU="visMasterStencil" v:prompt="" v:val="VT4(Basic_U.vssx)"/>
			</v:userDefs>
			<v:textBlock v:margins="rect(4,4,4,4)"/>
			<v:textRect cx="45" cy="599.625" width="90" height="24.75"/>
			<rect x="0" y="587.25" width="90" height="24.75" class="st16"/>
			<text x="13.84" y="602.63" class="st10" v:langID="1033"><v:paragraph v:horizAlign="1"/><v:tabList/>Output Filter(s)</text>		</g>
		<g id="shape1045-84" v:mID="1045" v:groupContext="shape" transform="translate(361.406,-250.875)">
			<title>Rectangle.1034</title>
			<desc>Output Channel(s)</desc>
			<v:userDefs>
				<v:ud v:nameU="visVersion" v:val="VT0(15):26"/>
				<v:ud v:nameU="visMasterStencil" v:prompt="" v:val="VT4(Basic_U.vssx)"/>
			</v:userDefs>
			<v:textBlock v:margins="rect(4,4,4,4)"/>
			<v:textRect cx="45" cy="599.625" width="90" height="24.75"/>
			<rect x="0" y="587.25" width="90" height="24.75" class="st12"/>
			<text x="7.76" y="602.63" class="st10" v:langID="1033"><v:paragraph v:horizAlign="1"/><v:tabList/>Output Channel(s)</text>		</g>
		<g id="group1073-87" transform="translate(570.644,-381.13)" v:mID="1073" v:groupContext="group">
			<title>Sheet.1073</title>
			<g id="group1074-88" v:mID="1074" v:groupContext="group">
				<title>Sheet.1074</title>
				<g id="shape1075-89" v:mID="1075" v:groupContext="shape" transform="translate(6.14016,-16.1783)">
					<title>Sheet.1075</title>
					<path d="M11.22 612 L10.05 612 L10.05 608.93 a0.158305 0.158305 -180 0 0 -0.0350347 0 L1.2 608.93 a0.158305 0.158305
								 -180 0 0 -0.0350347 0 L1.17 612 L0 612 L0 608.87 A1.16782 1.16782 0 0 1 1.2 607.76 L10.02 607.76
								 A1.16782 1.16782 0 0 1 11.22 608.87 L11.22 612 Z" class="st17"/>
				</g>
				<g id="shape1076-91" v:mID="1076" v:groupContext="shape">
					<title>Sheet.1076</title>
					<path d="M-0 611.22 a0.778567 0.778567 -180 0 0 0.778549 0.778549 L22.58 612 a0.778567 0.778567 -180 0 0 0.778549
								 -0.778549 L23.36 596.47 a0.778567 0.778567 -180 0 0 -0.778549 -0.778549 L0.78 595.69 a0.778567 0.778567
								 -180 0 0 -0.778549 0.778549 L0 611.22 Z" class="st18"/>
				</g>
				<g id="group1077-95" transform="translate(5.66784,-2.50433)" v:mID="1077" v:groupContext="group">
					<title>Sheet.1077</title>
					<g id="shape1078-96" v:mID="1078" v:groupContext="shape">
						<title>Sheet.1078</title>
						<path d="M9.07 600.71 A2.99352 2.99352 -180 0 0 6 602.72 A3.0065 3.0065 -180 0 0 2.91 600.73 C0.14 600.95
									 0 603.7 0.05 604.75 C0.07 605.5 0.23 607.86 5.97 611.96 L6.02 612 L6.07 611.96 C11.82 607.83
									 11.96 605.42 11.98 604.64 C12.01 603.62 11.85 600.92 9.07 600.71 Z" class="st19"/>
					</g>
					<g id="group1079-100" transform="translate(0.886248,-2.09115)" v:mID="1079" v:groupContext="group">
						<title>Sheet.1079</title>
						<g id="shape1080-101" v:mID="1080" v:groupContext="shape" transform="translate(4.93453,0)">
							<title>Sheet.1080</title>
							<path d="M6.01 605.18 A4.47276 4.47276 0 0 1 5.59 607.62 A6.97969 6.97969 0 0 1 1.48 610.75 a0.94464
										 0.94464 -180 0 0 -0.686421 -0.342562 a0.962806 0.962806 -180 1 0 0.896629 1.03807 A9.61768
										 9.61768 -180 0 0 5.38 609.08 A4.31576 4.31576 -180 0 0 6.15 606.74 A5.37329 5.37329 -180
										 0 0 6.01 605.18 Z" class="st20"/>
						</g>
						<g id="shape1081-103" v:mID="1081" v:groupContext="shape" transform="translate(0,-0.707417)">
							<title>Sheet.1081</title>
							<path d="M2.67 611.6 L2.91 611.88 a0.371108 0.371108 -180 0 0 0.519033 0.0298444 L3.99 611.41 a0.372406
										 0.372406 -180 0 0 0.0298444 -0.519033 a0.364621 0.364621 -180 0 0 -0.50995 -0.0817477 a0.389275
										 0.389275 -180 0 0 -0.0350347 0.0298444 L3.18 611.1 C1.36 609.1 0.84 607.55 1.68 606.81 C2.52
										 606.07 3.98 606.77 5.79 608.78 L5.5 609.04 a0.365918 0.365918 -180 0 0 -0.0324395 0.519033
										 a0.358133 0.358133 -180 0 0 0.503462 0.0428202 L5.99 609.59 L6.53 609.1 a0.372406 0.372406
										 -180 0 0 0.0298444 -0.519033 L6.32 608.31 C5.1 606.94 2.98 605.23 1.52 606.09 A2.27855 2.27855
										 0 0 1 0.9 604.64 A1.6116 1.6116 0 0 1 1.16 603.7 A2.47968 2.47968 -180 0 0 0.2 604.27 A2.48746
										 2.48746 -180 0 0 0.99 606.57 C0 607.93 1.44 610.22 2.67 611.6 Z" class="st20"/>
						</g>
					</g>
				</g>
			</g>
		</g>
	</g>
</svg>
