<?xml version="1.0" standalone="no"?>
<!DOCTYPE svg PUBLIC "-//W3C//DTD SVG 1.0//EN" "http://www.w3.org/TR/2001/REC-SVG-20010904/DTD/svg10.dtd">
<svg xmlns="http://www.w3.org/2000/svg" xmlns:xlink="http://www.w3.org/1999/xlink" id="body_1" width="36" height="36">

<defs>
    <linearGradient transform="matrix(1 0 0 1 0 0)"  id="1" x1="9.09" y1="17.5" x2="9.09" y2="1.36">
        <stop stop-color="#EF7100" offset="0%"/>
        <stop stop-color="#FAA21D" offset="100%"/>
    </linearGradient>
</defs>

<g transform="matrix(2 0 0 2 0 0)">
    <path d="M13.47 1.38C 11.530358 1.2178235 9.727468 2.390937 9.09 4.23C 8.4457245 2.391687 6.6413865 1.2203059 4.7 1.38C 0.75 1.69 0.54 5.6 0.6 7.1C 0.63 8.17 0.84 11.54 9 17.4L9 17.4L9 17.5L9.07 17.45L9.139999 17.5L9.139999 17.4C 17.34 11.54 17.55 8.11 17.58 7C 17.64 5.54 17.42 1.69 13.47 1.38z" stroke="none" fill="url(#1)" />
	<g>
        <path d="M17 3.8C 17.33021 5.131919 17.221481 6.5348625 16.69 7.8C 15.81 9.8 13.89 11.4 11.1 12.58C 10.842521 12.301635 10.479159 12.14539 10.1 12.15C 9.347372 12.144827 8.731506 12.747775 8.720726 13.500344C 8.709946 14.252914 9.308289 14.873256 10.060758 14.889643C 10.813226 14.90603 11.438008 14.312325 11.46 13.559999C 13.639794 12.654806 15.548302 11.201035 17 9.34C 17.472084 8.322342 17.658733 7.1955233 17.54 6.08C 17.489378 5.2950573 17.306822 4.524264 17 3.8z" stroke="none" fill="#FFE452" fill-rule="nonzero" />
        <path d="M6.87 11.94L6.48 12.339999C 3.73 9.63 2.86 7.48 4 6.36C 5.1400003 5.2400002 7.27 6.11 10 8.83L10 8.83L9.61 9.23C 9.511064 9.3277 9.455376 9.460954 9.455376 9.599999C 9.455376 9.739045 9.511064 9.872299 9.61 9.969999C 9.706299 10.071512 9.840076 10.129001 9.98 10.129001C 10.119923 10.129001 10.2537 10.071512 10.349999 9.969999L10.349999 9.969999L11.089999 9.23C 11.290701 9.0241585 11.290701 8.695841 11.089999 8.49L11.089999 8.49L10.719999 8.12C 8.869999 6.2599998 5.7199993 4.0099998 3.7199993 5.34C 3.1598907 4.813125 2.8054338 4.1042123 2.7199993 3.3400002C 2.6583557 2.7577577 2.8230646 2.1741161 3.1799994 1.7100002C 2.6046417 1.9649959 2.097571 2.3521514 1.7 2.84C 1.5295184 4.0739446 2.0239024 5.306102 3 6.08C 1.7 8.08 3.94 11.219999 5.79 13.08L5.79 13.08L6.16 13.46C 6.365841 13.660702 6.6941586 13.660702 6.8999996 13.46L6.8999996 13.46L7.6499996 12.71C 7.850702 12.504159 7.850702 12.175841 7.6499996 11.97C 7.5556626 11.854162 7.416061 11.7844925 7.266779 11.77875C 7.117497 11.773009 6.9729567 11.83175 6.87 11.94z" stroke="none" fill="#FFE452" fill-rule="nonzero" />
	</g>
</g>
</svg>